PathFileType	4	(X / Y / Z)	markers.trc
DataRate	CameraRate	NumFrames	NumMarkers	Units	OrigDataRate	OrigDataStartFrame	OrigNumFrames
200	200	1	46	m	200	1	1
Frame#	Time	AnkL			AnkM			C7			CLAV			CalL			CalM			Hee			KneL			KneM			LASI			LAnkL			LAnkM			LCalL			LCalM			LELB			LFRA			LHee			LKneL			LKneM			LMFL			LMFM			LPat			LSHO			LTRO			LToe2			LToeL			LToeM			LUPA			LWRA			LWRE			MFL			MFM			Pat			RASI			RELB			RFRA			RSHO			RUPA			RWBA			RWRB			SACR			STRN			TRO			Toe2			ToeL			ToeM			
		X1	Y1	Z1	X2	Y2	Z2	X3	Y3	Z3	X4	Y4	Z4	X5	Y5	Z5	X6	Y6	Z6	X7	Y7	Z7	X8	Y8	Z8	X9	Y9	Z9	X10	Y10	Z10	X11	Y11	Z11	X12	Y12	Z12	X13	Y13	Z13	X14	Y14	Z14	X15	Y15	Z15	X16	Y16	Z16	X17	Y17	Z17	X18	Y18	Z18	X19	Y19	Z19	X20	Y20	Z20	X21	Y21	Z21	X22	Y22	Z22	X23	Y23	Z23	X24	Y24	Z24	X25	Y25	Z25	X26	Y26	Z26	X27	Y27	Z27	X28	Y28	Z28	X29	Y29	Z29	X30	Y30	Z30	X31	Y31	Z31	X32	Y32	Z32	X33	Y33	Z33	X34	Y34	Z34	X35	Y35	Z35	X36	Y36	Z36	X37	Y37	Z37	X38	Y38	Z38	X39	Y39	Z39	X40	Y40	Z40	X41	Y41	Z41	X42	Y42	Z42	X43	Y43	Z43	X44	Y44	Z44	X45	Y45	Z45	X46	Y46	Z46	
1	0	-0.122646	-0.840606	0.272018	-0.091570	-0.836870	0.174709	-0.148967	0.683508	-0.002306	-0.039216	0.603476	-0.006951	-0.111323	-0.896904	0.279649	-0.105892	-0.898027	0.176817	-0.177176	-0.870769	0.216524	-0.061335	-0.378091	0.242403	-0.051974	-0.392444	0.117452	0.031751	0.236783	-0.134645	-0.145256	-0.835473	-0.261436	-0.117593	-0.820711	-0.164156	-0.150553	-0.887735	-0.267977	-0.142290	-0.901303	-0.165354	-0.098899	0.370363	-0.360754	-0.097862	0.211673	-0.405912	-0.211529	-0.864407	-0.191067	-0.049109	-0.385746	-0.228018	-0.039533	-0.405718	-0.103082	-0.090213	-0.867729	-0.275058	-0.073579	-0.891305	-0.176100	0.026209	-0.376956	-0.178358	-0.115004	0.694986	-0.147442	-0.031805	0.100954	-0.207373	0.083999	-0.874831	-0.253315	0.009089	-0.893856	-0.321178	0.036245	-0.909152	-0.185206	-0.084852	0.582783	-0.278072	-0.008959	0.064866	-0.375766	-0.004641	0.098701	-0.460310	-0.061429	-0.879971	0.286849	-0.040688	-0.887050	0.184009	0.013433	-0.368466	0.184169	-0.000321	0.251941	0.149492	-0.099356	0.361744	0.361834	-0.107151	0.266130	0.404077	-0.118429	0.671966	0.140726	-0.084164	0.490782	0.276477	-0.038907	0.016639	0.365654	-0.022565	0.058709	0.457358	-0.198126	0.156797	-0.019442	-0.026971	0.472428	-0.014223	-0.048163	0.117767	0.226397	0.122868	-0.857530	0.242868	0.052704	-0.883910	0.309174	0.080612	-0.902374	0.179007	
